<svg width="1480" height="810" xmlns="http://www.w3.org/2000/svg" xmlns:xlink="http://www.w3.org/1999/xlink"><rect x="0" y="0" width="1480" height="810" rx="5" ry="5" style="fill:#282d35"/><circle cx="20" cy="20" r="7" style="fill:#ff5f58"/><circle cx="43" cy="20" r="7" style="fill:#ffbd2e"/><circle cx="66" cy="20" r="7" style="fill:#18c132"/><g transform="translate(20,60)"><g style="animation-duration:13.05s;animation-iteration-count:infinite;animation-name:k;animation-timing-function:steps(1,end);font-family:Monaco,Consolas,Menlo,'Bitstream Vera Sans Mono','Powerline Symbols',monospace;font-size:20px"><style>@keyframes k {9.267%{transform:translateX(-0px)}13.589%{transform:translateX(-1480px)}15.963%{transform:translateX(-2960px)}23.386%{transform:translateX(-4440px)}26.024%{transform:translateX(-5920px)}31.323%{transform:translateX(-7400px)}34.150%{transform:translateX(-8880px)}36.343%{transform:translateX(-10360px)}38.253%{transform:translateX(-11840px)}41.464%{transform:translateX(-13320px)}45.043%{transform:translateX(-14800px)}46.205%{transform:translateX(-16280px)}48.873%{transform:translateX(-17760px)}54.000%{transform:translateX(-19240px)}57.921%{transform:translateX(-20720px)}61.017%{transform:translateX(-22200px)}63.957%{transform:translateX(-23680px)}65.011%{transform:translateX(-25160px)}67.919%{transform:translateX(-26640px)}69.805%{transform:translateX(-28120px)}71.449%{transform:translateX(-29600px)}73.414%{transform:translateX(-31080px)}75.253%{transform:translateX(-32560px)}76.720%{transform:translateX(-34040px)}80.360%{transform:translateX(-35520px)}85.490%{transform:translateX(-37000px)}87.040%{transform:translateX(-38480px)}100.000%{transform:translateX(-39960px)}}.a{fill:#e5e5e5}</style><g transform="translate(0)"><text x="0" y="0" class="a">n</text></g><g transform="translate(1480)"><text x="0" y="0" class="a">ne</text></g><g transform="translate(2960)"><text x="0" y="0" class="a">nex</text></g><g transform="translate(4440)"><text x="0" y="0" class="a">nexr</text></g><g transform="translate(5920)"><text x="0" y="0" class="a">nexre</text></g><g transform="translate(7400)"><text x="0" y="0" class="a">nexren</text></g><g transform="translate(8880)"><text x="0" y="0" class="a">nexrend</text></g><g transform="translate(10360)"><text x="0" y="0" class="a">nexrende</text></g><g transform="translate(11840)"><text x="0" y="0" class="a">nexrender</text></g><g transform="translate(13320)"><text x="0" y="0" class="a">nexrender0</text></g><g transform="translate(14800)"><text x="0" y="0" class="a">nexrender</text></g><g transform="translate(16280)"><text x="0" y="0" class="a">nexrender-</text></g><g transform="translate(17760)"><text x="0" y="0" class="a">nexrender-c</text></g><g transform="translate(19240)"><text x="0" y="0" class="a">nexrender-cl</text></g><g transform="translate(20720)"><text x="0" y="0" class="a">nexrender-cli</text></g><g transform="translate(22200)"><text x="0" y="0" class="a">nexrender-cli</text></g><g transform="translate(23680)"><text x="0" y="0" class="a">nexrender-cli</text><text x="168" y="0" class="a">-</text></g><g transform="translate(25160)"><text x="0" y="0" class="a">nexrender-cli</text><text x="168" y="0" class="a">--</text></g><g transform="translate(26640)"><text x="0" y="0" class="a">nexrender-cli</text><text x="168" y="0" class="a">--v</text></g><g transform="translate(28120)"><text x="0" y="0" class="a">nexrender-cli</text><text x="168" y="0" class="a">--ve</text></g><g transform="translate(29600)"><text x="0" y="0" class="a">nexrender-cli</text><text x="168" y="0" class="a">--ver</text></g><g transform="translate(31080)"><text x="0" y="0" class="a">nexrender-cli</text><text x="168" y="0" class="a">--vers</text></g><g transform="translate(32560)"><text x="0" y="0" class="a">nexrender-cli</text><text x="168" y="0" class="a">--versi</text></g><g transform="translate(34040)"><text x="0" y="0" class="a">nexrender-cli</text><text x="168" y="0" class="a">--versio</text></g><g transform="translate(35520)"><text x="0" y="0" class="a">nexrender-cli</text><text x="168" y="0" class="a">--version</text></g><g transform="translate(37000)"><text x="0" y="0" class="a">nexrender-cli</text><text x="168" y="0" class="a">--version</text></g><g transform="translate(38480)"><text x="0" y="0" class="a">nexrender-cli</text><text x="168" y="0" class="a">--version</text><text x="0" y="25" class="a">1.62.3</text></g><g transform="translate(39960)"><text x="0" y="0" class="a">nexrender-cli</text><text x="168" y="0" class="a">--version</text><text x="0" y="25" class="a">1.62.3</text></g></g></g></svg>